<svg xmlns="http://www.w3.org/2000/svg" version="1.1" xmlns:xlink="http://www.w3.org/1999/xlink" width="1500" height="1500" viewBox="0 0 1500 1500"><rect width="1500" height="1500" x="0" y="0" id="background" stroke="transparent" fill="#ffffff"></rect><svg xml:space="preserve" width="1000" height="1000" data-version="2" data-id="lg_jTmtrmltNu6wCIaefY" viewBox="0 0 556 395" x="250" y="250"><rect width="100%" height="100%" fill="transparent"></rect><path fill="#fce44d" d="m92.595 295.443-69.56-103.23v97.31q0 2.59 2.59 2.59h8.69v3.33H5.455v-3.33h8.7q2.59 0 2.59-2.59v-105.08q0-2.22-2.59-2.22h-8.7v-3.33h27.2l59.57 88.06v-82.14q0-2.59-2.59-2.59h-8.7v-3.33h28.86v3.33h-8.69q-2.59 0-2.59 2.22v111Z"></path><rect width="104.34" height="116.55" x="-52.17" y="-58.27" fill="none" rx="0" ry="0" transform="translate(58.13 237.67)"></rect><path fill="#fce44d" d="m128.395 281.563-7.36-8.04q-7.35-8.05-7.35-36.36 0-28.3 14.71-44.4 14.7-16.09 38.29-16.09t38.3 16.09q14.7 16.1 14.7 44.4 0 28.31-14.7 44.4-14.71 16.1-38.3 16.1-23.59 0-38.29-16.1m11.65-85.1-5.32 7.5q-5.32 7.49-5.32 33.2 0 25.72 10.64 40.7 10.64 14.99 26.55 14.99t26.64-14.99q10.73-14.98 10.73-40.7 0-25.71-10.73-40.7-10.73-14.98-26.64-14.98t-26.55 14.98"></path><rect width="106" height="120.99" x="-53" y="-60.49" fill="none" rx="0" ry="0" transform="translate(167.19 237.67)"></rect><path fill="#fce44d" d="M224.495 295.443v-3.33h8.7q2.59 0 2.59-2.22v-105.45q0-2.22-2.59-2.22h-8.7v-3.33h43.29q13.88 0 23.78 7.58 9.89 7.59 9.89 19.61 0 9.25-4.9 16.19-4.9 6.94-13.04 10.45 11.65 2.59 18.96 10.55 7.31 7.95 7.31 21.18t-10.92 22.11q-10.91 8.88-26.45 8.88Zm46.99-59.39h-20.53v54.21h20.53q11.1 0 17.3-8.14 6.2-8.14 6.2-19.06 0-10.91-6.2-18.96t-17.3-8.05m-7.58-51.98h-12.95v47.36h14.06q10.91 0 16.28-7.4 5.36-7.4 5.36-17.3t-5.55-16.28q-5.55-6.38-17.2-6.38"></path><rect width="85.29" height="116.55" x="-42.65" y="-58.27" fill="none" rx="0" ry="0" transform="translate(267.64 237.67)"></rect><path fill="#fce44d" d="M322.175 289.523v-105.08q0-2.22-2.59-2.22h-8.69v-3.33h37.74v3.33h-8.7q-2.59 0-2.59 2.22v105.08q0 2.59 2.59 2.59h8.7v3.33h-37.74v-3.33h8.69q2.59 0 2.59-2.59"></path><rect width="37.74" height="116.55" x="-18.87" y="-58.27" fill="none" rx="0" ry="0" transform="translate(330.26 237.67)"></rect><path fill="#fce44d" d="M353.445 295.443v-3.33h8.69q2.59 0 2.59-2.59v-105.08q0-2.22-2.59-2.22h-8.69v-3.33h37.74v3.33h-8.7q-2.59 0-2.59 2.22v105.82h36.82q4.81 0 5.18-4.07l2.77-21.65h4.26v8.7q0 16.28 1.66 23.86-5.92-1.66-20.53-1.66Z"></path><rect width="77.14" height="118.21" x="-38.57" y="-59.1" fill="none" rx="0" ry="0" transform="translate(392.51 238.5)"></rect><path fill="#fce44d" d="M440.205 289.523v-105.08q0-2.22-2.59-2.22h-8.69v-3.33h37.74v3.33h-8.7q-2.59 0-2.59 2.22v105.08q0 2.59 2.59 2.59h8.7v3.33h-37.74v-3.33h8.69q2.59 0 2.59-2.59"></path><rect width="37.74" height="116.55" x="-18.87" y="-58.27" fill="none" rx="0" ry="0" transform="translate(448.3 237.67)"></rect><path fill="#fce44d" d="M510.875 297.663q-12.21 0-24.42-6.66-4.07-2.04-5.55-2.04-2.77 0-2.96 3.89l-.18 2.59h-3.52v-30.9h3.33q1.67 14.25 10.64 21t21.28 6.75q12.3 0 18.68-6.66 6.38-6.66 6.38-15.72 0-14.43-16.65-21.83l-22.01-9.81q-9.99-4.44-14.99-12.11-4.99-7.68-4.99-16.56 0-13.51 9.06-23.22 9.07-9.71 26.09-9.71 9.99 0 20.53 6.66 3.52 2.03 4.81 2.03 2.41 0 2.59-3.88l.19-3.7h3.51v32h-3.33q-1.48-14.24-9.15-20.99-7.68-6.76-18.69-6.76-11.01 0-17.02 6.02-6.01 6.01-6.01 13.69 0 7.67 4.16 13.78 4.16 6.1 12.3 9.62l22.2 9.8q11.1 5 16.75 13.05 5.64 8.04 5.64 17.29 0 13.14-10.55 22.76-10.54 9.62-28.12 9.62"></path><rect width="75.3" height="120.99" x="-37.65" y="-60.49" fill="none" rx="0" ry="0" transform="translate(512.4 237.67)"></rect><path fill="#fce44d" d="M95.585 349.853v31.68h-4.84l-10.3-26.75v26.75h-3.39v-31.68h4.98l10.25 26.36v-26.36Z"></path><rect width="18.53" height="31.68" x="-9.27" y="-15.84" fill="none" rx="0" ry="0" transform="translate(86.82 366.2)"></rect><path fill="#fce44d" d="m115.255 381.533-.18-2.64q-.97 1.32-2.53 2.2-1.56.88-3.98.88-1.28 0-2.58-.37-1.29-.38-2.33-1.19-1.03-.82-1.69-2.09-.66-1.28-.66-3.13 0-3.87 3.19-6.11 3.19-2.25 10.27-2.38v-1.98q0-2.11-1.03-3.5-1.04-1.38-3.5-1.38-1.89 0-3.15.94-1.25.95-1.91 2.75l-3.21-1.23q1.05-2.37 3.17-3.78 2.11-1.41 5.19-1.41 2.02 0 3.52.55 1.49.55 2.48 1.5.99.94 1.48 2.24.48 1.3.48 2.79v17.34Zm-5.72-2.38q1.67 0 2.94-.74 1.28-.75 2.29-1.9v-7.04q-5.06.09-7.43 1.43-2.38 1.35-2.38 4.03 0 2.24 1.34 3.23 1.34.99 3.24.99"></path><rect width="16.98" height="24.86" x="-8.49" y="-12.43" fill="none" rx="0" ry="0" transform="translate(110.3 370.04)"></rect><path fill="#fce44d" d="m141.475 357.773-7.39 23.76h-4.89l-7.3-23.76h3.78l6.03 20.94 6.16-20.94Z"></path><rect width="19.58" height="23.76" x="-9.79" y="-11.88" fill="none" rx="0" ry="0" transform="translate(132.19 370.15)"></rect><path fill="#fce44d" d="M145.175 353.463v-4.27h4.04v4.27Zm.26 28.07v-23.76h3.52v23.76Z"></path><rect width="4.04" height="32.34" x="-2.02" y="-16.17" fill="none" rx="0" ry="0" transform="translate(147.7 365.86)"></rect><path fill="#fce44d" d="M173.065 358.873h-5.19q1.8.75 2.97 2.29 1.17 1.54 1.17 4.05 0 2.06-.77 3.56t-2.01 2.46q-1.23.97-2.77 1.43-1.54.47-3.03.47-.93 0-1.9-.18-.96-.18-1.89-.53-.97.84-.97 1.63 0 .4.16.75.15.35.64.61.48.27 1.45.47.97.19 2.64.28 2.24.13 4.05.51 1.8.37 3.08 1.16 1.27.8 1.95 2.03.69 1.23.69 3.08 0 1.36-.64 2.66t-1.89 2.33q-1.26 1.04-3.15 1.65-1.89.62-4.4.62-4.49 0-6.86-1.72-2.38-1.71-2.38-4.53 0-1.98 1.06-3.41 1.05-1.43 2.72-2.31-1.14-.57-1.6-1.41-.46-.83-.46-1.85 0-1.27.63-2.11.64-.83 1.65-1.32-1.4-.97-2.35-2.53-.95-1.56-.95-3.8 0-2.03.77-3.55.77-1.51 2.05-2.53 1.28-1.01 2.88-1.51 1.61-.51 3.28-.51l8.93-1.63Zm-14.83 6.34q0 2.46 1.41 3.91 1.41 1.45 3.79 1.45 2.37 0 3.71-1.45 1.35-1.45 1.35-3.91 0-2.47-1.26-4.01-1.25-1.54-3.58-1.54-1.19 0-2.18.4-.99.39-1.72 1.12-.72.73-1.12 1.76-.4 1.03-.4 2.27m3.92 14.03q-.7-.04-1.28-.13-.57-.09-1.1-.18-1.01.84-1.62 1.87-.62 1.04-.62 2.58 0 .83.29 1.63.28.79.94 1.43.66.63 1.74 1.01 1.08.37 2.71.37 1.89 0 3.12-.48 1.23-.49 1.96-1.19.72-.7 1.01-1.52.29-.81.29-1.47 0-.84-.29-1.5t-1.08-1.12q-.79-.46-2.24-.79-1.45-.33-3.83-.51"></path><rect width="19.32" height="34.72" x="-9.66" y="-17.36" fill="none" rx="0" ry="0" transform="translate(164.18 373.34)"></rect><path fill="#fce44d" d="m190.575 381.533-.17-2.64q-.97 1.32-2.53 2.2-1.56.88-3.98.88-1.28 0-2.58-.37-1.3-.38-2.33-1.19-1.03-.82-1.69-2.09-.66-1.28-.66-3.13 0-3.87 3.19-6.11 3.19-2.25 10.27-2.38v-1.98q0-2.11-1.03-3.5-1.04-1.38-3.5-1.38-1.89 0-3.15.94-1.25.95-1.91 2.75l-3.21-1.23q1.05-2.37 3.16-3.78 2.12-1.41 5.2-1.41 2.02 0 3.52.55 1.49.55 2.48 1.5.99.94 1.48 2.24.48 1.3.48 2.79v17.34Zm-5.72-2.38q1.68 0 2.95-.74 1.28-.75 2.29-1.9v-7.04q-5.06.09-7.44 1.43-2.37 1.35-2.37 4.03 0 2.24 1.34 3.23 1.34.99 3.23.99"></path><rect width="16.98" height="24.86" x="-8.49" y="-12.43" fill="none" rx="0" ry="0" transform="translate(185.63 370.04)"></rect><path fill="#fce44d" d="M211.175 381.093q-1.68.7-3.74.7-2.91 0-4.4-1.58-1.5-1.58-1.5-4.36v-15.22h-3.74l.44-2.86h3.34l.22-5.72h3.26v5.72h5.1v2.86h-5.1v15.05q0 1.76.79 2.46.79.71 2.16.71.66 0 1.12-.11.46-.11 1.17-.33Z"></path><rect width="13.38" height="29.74" x="-6.69" y="-14.87" fill="none" rx="0" ry="0" transform="translate(204.99 367.42)"></rect><path fill="#fce44d" d="M232.375 377.533q-1.14 1.8-3.21 3.12-2.07 1.32-5.15 1.32-2.15 0-3.91-.73-1.76-.72-3.04-2.22-1.27-1.49-1.98-3.76-.7-2.27-.7-5.39 0-3.34.72-5.76.73-2.42 2.03-3.99 1.3-1.56 3.03-2.28 1.74-.73 3.72-.73 2.2 0 3.85.73 1.65.72 2.75 2.33 1.1 1.6 1.65 4.11.55 2.51.55 6.07h-14.69q.04 2.51.55 4.21.5 1.69 1.34 2.7.83 1.01 1.96 1.45 1.12.44 2.39.44 1.06 0 1.92-.33.86-.33 1.52-.81.66-.48 1.14-1.08.48-.59.79-1.12Zm-8.49-17.69q-2.46 0-3.96 1.85-1.49 1.84-1.85 5.85h10.96q-.09-2.16-.46-3.63-.38-1.48-1.04-2.38-.66-.9-1.56-1.3-.9-.39-2.09-.39"></path><rect width="18.3" height="24.86" x="-9.15" y="-12.43" fill="none" rx="0" ry="0" transform="translate(224.03 370.04)"></rect><path fill="#fce44d" d="M262.345 381.093q-1.67.7-3.74.7-2.91 0-4.4-1.58-1.5-1.58-1.5-4.36v-15.22h-3.74l.44-2.86h3.35l.22-5.72h3.25v5.72h5.11v2.86h-5.11v15.05q0 1.76.79 2.46.8.71 2.16.71.66 0 1.12-.11.46-.11 1.17-.33Z"></path><rect width="13.38" height="29.74" x="-6.69" y="-14.87" fill="none" rx="0" ry="0" transform="translate(256.15 367.42)"></rect><path fill="#fce44d" d="M266.525 381.533v-32.34h3.52v11.53q1.41-1.94 3.19-2.77 1.78-.84 3.45-.84 1.54 0 2.82.44 1.27.44 2.18 1.41.9.97 1.4 2.55.51 1.58.51 3.87v16.15h-3.52v-15.58q0-1.71-.26-2.88-.27-1.16-.77-1.85-.51-.68-1.3-.96-.79-.29-1.85-.29-1.76 0-3.21 1.06-1.45 1.05-2.64 2.9v17.6Z"></path><rect width="17.07" height="32.34" x="-8.54" y="-16.17" fill="none" rx="0" ry="0" transform="translate(275.56 365.86)"></rect><path fill="#fce44d" d="M307.885 377.533q-1.15 1.8-3.21 3.12-2.07 1.32-5.15 1.32-2.16 0-3.92-.73-1.76-.72-3.03-2.22-1.28-1.49-1.98-3.76-.71-2.27-.71-5.39 0-3.34.73-5.76.72-2.42 2.02-3.99 1.3-1.56 3.04-2.28 1.74-.73 3.72-.73 2.2 0 3.85.73 1.65.72 2.75 2.33 1.1 1.6 1.65 4.11.55 2.51.55 6.07h-14.7q.04 2.51.55 4.21.51 1.69 1.34 2.7.84 1.01 1.96 1.45 1.12.44 2.4.44 1.05 0 1.91-.33.86-.33 1.52-.81.66-.48 1.14-1.08.49-.59.8-1.12Zm-8.49-17.69q-2.47 0-3.96 1.85-1.5 1.84-1.85 5.85h10.95q-.08-2.16-.46-3.63-.37-1.48-1.03-2.38-.66-.9-1.56-1.3-.91-.39-2.09-.39"></path><rect width="18.31" height="24.86" x="-9.15" y="-12.43" fill="none" rx="0" ry="0" transform="translate(299.54 370.04)"></rect><path fill="#fce44d" d="M346.295 349.853v31.68h-4.84l-10.3-26.75v26.75h-3.38v-31.68h4.97l10.25 26.36v-26.36Z"></path><rect width="18.52" height="31.68" x="-9.26" y="-15.84" fill="none" rx="0" ry="0" transform="translate(337.54 366.2)"></rect><path fill="#fce44d" d="M371.025 377.533q-1.15 1.8-3.21 3.12-2.07 1.32-5.15 1.32-2.16 0-3.92-.73-1.76-.72-3.03-2.22-1.28-1.49-1.98-3.76-.71-2.27-.71-5.39 0-3.34.73-5.76.72-2.42 2.02-3.99 1.3-1.56 3.04-2.28 1.74-.73 3.72-.73 2.2 0 3.85.73 1.65.72 2.75 2.33 1.1 1.6 1.65 4.11.55 2.51.55 6.07h-14.7q.04 2.51.55 4.21.51 1.69 1.34 2.7.84 1.01 1.96 1.45 1.12.44 2.4.44 1.05 0 1.91-.33.86-.33 1.52-.81.66-.48 1.14-1.08.49-.59.8-1.12Zm-8.49-17.69q-2.47 0-3.96 1.85-1.5 1.84-1.85 5.85h10.95q-.08-2.16-.46-3.63-.37-1.48-1.03-2.38-.66-.9-1.56-1.3-.91-.39-2.09-.39"></path><rect width="18.31" height="24.86" x="-9.15" y="-12.43" fill="none" rx="0" ry="0" transform="translate(362.68 370.04)"></rect><path fill="#fce44d" d="m404.555 357.773-5.81 23.76h-4.4l-4.71-19.8-4.66 19.8h-4.54l-5.8-23.76h3.6l4.58 20.11 4.66-20.11h4.54l4.62 20.02 4.44-20.02Z"></path><rect width="29.92" height="23.76" x="-14.96" y="-11.88" fill="none" rx="0" ry="0" transform="translate(390.1 370.15)"></rect><path fill="#fce44d" d="m438.565 381.533-2.33-8.49h-11.09l-2.38 8.49h-3.69l9.46-31.68h4.57l9.42 31.68Zm-12.59-11.35h9.46l-4.66-16.9Z"></path><rect width="23.45" height="31.68" x="-11.72" y="-15.84" fill="none" rx="0" ry="0" transform="translate(431.3 366.2)"></rect><path fill="#fce44d" d="M463.555 358.873h-5.19q1.8.75 2.97 2.29 1.16 1.54 1.16 4.05 0 2.06-.77 3.56t-2 2.46q-1.23.97-2.77 1.43-1.54.47-3.04.47-.92 0-1.89-.18-.97-.18-1.89-.53-.97.84-.97 1.63 0 .4.16.75.15.35.63.61.49.27 1.46.47.96.19 2.64.28 2.24.13 4.04.51 1.81.37 3.08 1.16 1.28.8 1.96 2.03.68 1.23.68 3.08 0 1.36-.63 2.66-.64 1.3-1.9 2.33-1.25 1.04-3.14 1.65-1.89.62-4.4.62-4.49 0-6.87-1.72-2.37-1.71-2.37-4.53 0-1.98 1.05-3.41 1.06-1.43 2.73-2.31-1.14-.57-1.6-1.41-.47-.83-.47-1.85 0-1.27.64-2.11.64-.83 1.65-1.32-1.41-.97-2.35-2.53-.95-1.56-.95-3.8 0-2.03.77-3.55.77-1.51 2.05-2.53 1.27-1.01 2.88-1.51 1.61-.51 3.28-.51l8.93-1.63Zm-14.83 6.34q0 2.46 1.41 3.91 1.41 1.45 3.78 1.45 2.38 0 3.72-1.45 1.34-1.45 1.34-3.91 0-2.47-1.25-4.01-1.25-1.54-3.59-1.54-1.18 0-2.17.4-.99.39-1.72 1.12-.73.73-1.12 1.76-.4 1.03-.4 2.27m3.92 14.03q-.71-.04-1.28-.13-.57-.09-1.1-.18-1.01.84-1.63 1.87-.61 1.04-.61 2.58 0 .83.28 1.63.29.79.95 1.43.66.63 1.74 1.01 1.08.37 2.7.37 1.9 0 3.13-.48 1.23-.49 1.96-1.19.72-.7 1.01-1.52.28-.81.28-1.47 0-.84-.28-1.5-.29-.66-1.08-1.12-.79-.46-2.24-.79-1.46-.33-3.83-.51"></path><rect width="19.31" height="34.72" x="-9.65" y="-17.36" fill="none" rx="0" ry="0" transform="translate(454.66 373.34)"></rect><path fill="#fce44d" d="M486.125 377.533q-1.14 1.8-3.21 3.12-2.07 1.32-5.15 1.32-2.15 0-3.91-.73-1.76-.72-3.04-2.22-1.28-1.49-1.98-3.76-.7-2.27-.7-5.39 0-3.34.72-5.76.73-2.42 2.03-3.99 1.29-1.56 3.03-2.28 1.74-.73 3.72-.73 2.2 0 3.85.73 1.65.72 2.75 2.33 1.1 1.6 1.65 4.11.55 2.51.55 6.07h-14.7q.05 2.51.55 4.21.51 1.69 1.35 2.7.83 1.01 1.95 1.45 1.13.44 2.4.44 1.06 0 1.92-.33.85-.33 1.51-.81.66-.48 1.15-1.08.48-.59.79-1.12Zm-8.49-17.69q-2.46 0-3.96 1.85-1.5 1.84-1.85 5.85h10.96q-.09-2.16-.46-3.63-.38-1.48-1.04-2.38-.66-.9-1.56-1.3-.9-.39-2.09-.39"></path><rect width="18.3" height="24.86" x="-9.15" y="-12.43" fill="none" rx="0" ry="0" transform="translate(477.79 370.04)"></rect><path fill="#fce44d" d="M350.094 94.66a24.412 24.412 0 0 1-2.238 6.002c-3.88 7.333-10.486 11.454-14.748 9.199-4.265-2.255-4.573-10.032-.698-17.372 1.888-3.554 4.41-6.349 7-8.038L271.87 3.797l-61.52 80.651c2.667 1.666 5.278 4.526 7.215 8.183 3.879 7.336 3.57 15.114-.692 17.371-4.262 2.258-10.868-1.862-14.747-9.202a24.599 24.599 0 0 1-2.184-5.735L152.7 111.321l12.728 38.735h222.095l15.166-38.465z"></path></svg></svg>